<svg xmlns="http://www.w3.org/2000/svg" viewBox="-1.064 -3.595 59.106 39.75"><defs><linearGradient id="a" x1="32.871" x2="32.871" y1="3.091" y2="33.672" gradientTransform="matrix(.11555 1.00317 -2.6435 .19875 73.444 -21.858)" gradientUnits="userSpaceOnUse" spreadMethod="pad"><stop offset="0" style="stop-color:#4a66b4"/><stop offset="1" style="stop-color:#4e31cd"/></linearGradient><linearGradient id="b" x1="13.871" x2="13.871" y1="3.62" y2="43.369" gradientUnits="userSpaceOnUse" spreadMethod="reflect"><stop offset="0" style="stop-color:#00f2ff"/><stop offset="1" style="stop-color:#fff"/></linearGradient></defs><path d="M0 0h58.042v33.012H0z" style="paint-order:fill;fill:url(#a)"/><path d="m.924 20.133 3.477 14.571-.28.197-15.001-9.817 1.072-.753 12.334 8.055-3.342-14.378.318-.224 12.382 8.021-3.4-14.338 1.072-.753 4.155 17.443-.251.177Zm24.474-5.759-2.507 11.752-.708.135-6.922-9.955 1.16-.221 5.727 8.223 2.136-9.722Zm15.444-3.204-.168 1.049-6.109-.98-2.446 15.236-1.27-.204 2.446-15.236-6.109-.981.169-1.049Z" style="fill:url(#b);paint-order:fill;stroke-width:2px;white-space:pre;mix-blend-mode:lighten" transform="translate(12.873 -7.215)"/></svg>